<svg xmlns="http://www.w3.org/2000/svg" width="1360" height="1670" viewBox="0 0 1360 1670" font-family="Roboto Mono, monospace"><rect width="100%" height="100%" fill="#eef2f6"/><text xml:space="preserve" x="28" y="48" font-size="28" fill="#14253b">cableprinter / common cable definitions</text><text xml:space="preserve" x="28" y="80" font-size="16" fill="#485b72">Definition code at left / cable silhouette and connector detail at right</text><g transform="translate(24 110)">
    <rect width="1312" height="360" rx="16" fill="#fff"/>
    <text xml:space="preserve" x="24" y="35" font-size="23" fill="#14253b">USB-C to USB-C</text>
    <text xml:space="preserve" x="24" y="62" font-size="15" fill="#485b72">Reversible plugs / round jacket</text>
    <rect x="20" y="86" width="344" height="225" rx="10" fill="#f2f5f8"/>
    <text xml:space="preserve" x="35" y="118" font-size="15" fill="#223c59">parseCableString(&quot;usb_c&quot;)</text><text xml:space="preserve" x="35" y="142" font-size="15" fill="#223c59"></text><text xml:space="preserve" x="35" y="166" font-size="15" fill="#223c59">// Object form</text><text xml:space="preserve" x="35" y="190" font-size="15" fill="#223c59">getCableDefinition({</text><text xml:space="preserve" x="35" y="214" font-size="15" fill="#223c59">  standard: &quot;usb_c&quot;,</text><text xml:space="preserve" x="35" y="238" font-size="15" fill="#223c59">  jacketDiameter: 4,</text><text xml:space="preserve" x="35" y="262" font-size="15" fill="#223c59">})</text>
    <text xml:space="preserve" x="392" y="104" font-size="12" fill="#485b72">CABLE ASSEMBLY</text>
    <svg x="375" y="110" width="640" height="208" viewBox="0 0 190 100"><g transform="translate(36 30)">
    <path d="M18,0 C46,0 28,42 58,42 S73,0 97,0" fill="none" stroke="#17273b" stroke-opacity=".15" stroke-width="4.45" stroke-linecap="round"/>
      <path d="M18,0 C46,0 28,42 58,42 S73,0 97,0" fill="none" stroke="#263449" stroke-width="4" stroke-linecap="round"/>
    <rect x="-6.5" y="-4.125" width="6.5" height="8.25" rx="1.1" fill="#c1ccd6" stroke="#7b8e9f" stroke-width=".2"/><path d="M-5.5,-3.125 H-1" stroke="#eff4f7" stroke-width=".5"/><rect x="0" y="-6" width="18" height="12" rx="3" fill="#263449" stroke="#536b80" stroke-width=".3"/>
    <rect x="1.5" y="-5" width="15" height="10" rx="3" fill="#314158"/>
    <path d="M17,-4 v8" stroke="#182438" stroke-width="1"/>
    <g transform="translate(115 0) scale(-1 1)"><rect x="-6.5" y="-4.125" width="6.5" height="8.25" rx="1.1" fill="#c1ccd6" stroke="#7b8e9f" stroke-width=".2"/><path d="M-5.5,-3.125 H-1" stroke="#eff4f7" stroke-width=".5"/><rect x="0" y="-6" width="18" height="12" rx="3" fill="#263449" stroke="#536b80" stroke-width=".3"/>
    <rect x="1.5" y="-5" width="15" height="10" rx="3" fill="#314158"/>
    <path d="M17,-4 v8" stroke="#182438" stroke-width="1"/></g>
  </g></svg>
    <path d="M1015 91 V300" stroke="#e4eaf0"/>
    <text xml:space="preserve" x="1040" y="104" font-size="12" fill="#485b72">MATING FACE</text>
    <svg x="1038" y="140" width="245" height="100" viewBox="-8.5 -4.5 17 9"><rect x="-4.125" y="-1.2" width="8.25" height="2.4" rx="1.2" fill="#d3dce4" stroke="#697d8f" stroke-width=".14"/>
      <rect x="-3.825" y="-0.8999999999999999" width="7.65" height="1.7999999999999998" rx=".8" fill="#263449"/>
      <rect x="-2.8" y="-.25" width="5.6" height=".5" rx=".16" fill="#d4ae68"/></svg>
    <text xml:space="preserve" x="1040" y="265" font-size="13" fill="#485b72">8.25 x 2.4 mm shell</text>
    <text xml:space="preserve" x="1040" y="287" font-size="12" fill="#485b72">detail enlarged</text>
    <text xml:space="preserve" x="24" y="339" font-size="15" fill="#485b72">8.25 x 2.4 mm plug shell / representative overmold</text>
  </g><g transform="translate(24 490)">
    <rect width="1312" height="360" rx="16" fill="#fff"/>
    <text xml:space="preserve" x="24" y="35" font-size="23" fill="#14253b">JST SH / 1 mm pitch</text>
    <text xml:space="preserve" x="24" y="62" font-size="15" fill="#485b72">4-position housing / four insulated wires</text>
    <rect x="20" y="86" width="344" height="225" rx="10" fill="#f2f5f8"/>
    <text xml:space="preserve" x="35" y="118" font-size="15" fill="#223c59">parseCableString(&quot;jst_sh_pins4&quot;)</text><text xml:space="preserve" x="35" y="142" font-size="15" fill="#223c59"></text><text xml:space="preserve" x="35" y="166" font-size="15" fill="#223c59">getCableDefinition({</text><text xml:space="preserve" x="35" y="190" font-size="15" fill="#223c59">  standard: &quot;jst_sh&quot;,</text><text xml:space="preserve" x="35" y="214" font-size="15" fill="#223c59">  pinCount: 4,</text><text xml:space="preserve" x="35" y="238" font-size="15" fill="#223c59">  wireDiameter: 0.6,</text><text xml:space="preserve" x="35" y="262" font-size="15" fill="#223c59">})</text>
    <text xml:space="preserve" x="392" y="104" font-size="12" fill="#485b72">CABLE ASSEMBLY</text>
    <svg x="375" y="110" width="640" height="208" viewBox="0 0 190 100"><g transform="translate(36 30)">
    <path d="M5,-1.5 C33,-1.5 28,40.5 58,40.5 S86,-1.5 110,-1.5" fill="none" stroke="#17273b" stroke-opacity=".15" stroke-width="1.05" stroke-linecap="round"/>
      <path d="M5,-1.5 C33,-1.5 28,40.5 58,40.5 S86,-1.5 110,-1.5" fill="none" stroke="#df4049" stroke-width="0.6" stroke-linecap="round"/><path d="M5,-0.5 C33,-0.5 28,41.5 58,41.5 S86,-0.5 110,-0.5" fill="none" stroke="#17273b" stroke-opacity=".15" stroke-width="1.05" stroke-linecap="round"/>
      <path d="M5,-0.5 C33,-0.5 28,41.5 58,41.5 S86,-0.5 110,-0.5" fill="none" stroke="#263449" stroke-width="0.6" stroke-linecap="round"/><path d="M5,0.5 C33,0.5 28,42.5 58,42.5 S86,0.5 110,0.5" fill="none" stroke="#17273b" stroke-opacity=".15" stroke-width="1.05" stroke-linecap="round"/>
      <path d="M5,0.5 C33,0.5 28,42.5 58,42.5 S86,0.5 110,0.5" fill="none" stroke="#e1b13c" stroke-width="0.6" stroke-linecap="round"/><path d="M5,1.5 C33,1.5 28,43.5 58,43.5 S86,1.5 110,1.5" fill="none" stroke="#17273b" stroke-opacity=".15" stroke-width="1.05" stroke-linecap="round"/>
      <path d="M5,1.5 C33,1.5 28,43.5 58,43.5 S86,1.5 110,1.5" fill="none" stroke="#347dc9" stroke-width="0.6" stroke-linecap="round"/>
    <rect x="0" y="-2.5" width="5" height="5" rx=".4" fill="#f7f4e7" stroke="#7a8fa4" stroke-width=".22"/>
      <rect x="0" y="-2.5" width=".8" height="5" fill="#e0dccb"/>
      <rect x="3" y="-1.8" width="1.3" height=".6" fill="#c5c8bc" rx=".1"/><rect x="3" y="-0.8" width="1.3" height=".6" fill="#c5c8bc" rx=".1"/><rect x="3" y="0.2" width="1.3" height=".6" fill="#c5c8bc" rx=".1"/><rect x="3" y="1.2" width="1.3" height=".6" fill="#c5c8bc" rx=".1"/>
    <g transform="translate(115 0) scale(-1 1)"><rect x="0" y="-2.5" width="5" height="5" rx=".4" fill="#f7f4e7" stroke="#7a8fa4" stroke-width=".22"/>
      <rect x="0" y="-2.5" width=".8" height="5" fill="#e0dccb"/>
      <rect x="3" y="-1.8" width="1.3" height=".6" fill="#c5c8bc" rx=".1"/><rect x="3" y="-0.8" width="1.3" height=".6" fill="#c5c8bc" rx=".1"/><rect x="3" y="0.2" width="1.3" height=".6" fill="#c5c8bc" rx=".1"/><rect x="3" y="1.2" width="1.3" height=".6" fill="#c5c8bc" rx=".1"/></g>
  </g></svg>
    <path d="M1015 91 V300" stroke="#e4eaf0"/>
    <text xml:space="preserve" x="1040" y="104" font-size="12" fill="#485b72">MATING FACE</text>
    <svg x="1038" y="140" width="245" height="100" viewBox="-6 -3.5 12 7"><rect x="-2.5" y="-1.4" width="5" height="2.8" rx=".18" fill="#faf8eb" stroke="#8293a5" stroke-width=".12"/>
      <rect x="-2.3" y="-1.75" width="4.6" height=".45" rx=".12" fill="#e8e5d8" stroke="#8293a5" stroke-width=".08"/><rect x="-1.75" y="-0.25" width="0.5" height="0.5" rx=".08" fill="#263449"/><rect x="-1.625" y="-0.125" width="0.25" height="0.25" fill="#b6a778"/><rect x="-0.75" y="-0.25" width="0.5" height="0.5" rx=".08" fill="#263449"/><rect x="-0.625" y="-0.125" width="0.25" height="0.25" fill="#b6a778"/><rect x="0.25" y="-0.25" width="0.5" height="0.5" rx=".08" fill="#263449"/><rect x="0.375" y="-0.125" width="0.25" height="0.25" fill="#b6a778"/><rect x="1.25" y="-0.25" width="0.5" height="0.5" rx=".08" fill="#263449"/><rect x="1.375" y="-0.125" width="0.25" height="0.25" fill="#b6a778"/>
      <path d="M-2.15,1.2 l.6,0 l-.3,-.45 z" fill="#566b80"/></svg>
    <text xml:space="preserve" x="1040" y="265" font-size="13" fill="#485b72">4 contacts / 1 mm pitch</text>
    <text xml:space="preserve" x="1040" y="287" font-size="12" fill="#485b72">detail enlarged</text>
    <text xml:space="preserve" x="24" y="339" font-size="15" fill="#485b72">SHR-04V-S-B: 5 x 2.8 x 5 mm / 0.6 mm wire O.D.</text>
  </g><g transform="translate(24 870)">
    <rect width="1312" height="360" rx="16" fill="#fff"/>
    <text xml:space="preserve" x="24" y="35" font-size="23" fill="#14253b">JST PH / 2 mm pitch</text>
    <text xml:space="preserve" x="24" y="62" font-size="15" fill="#485b72">2-position housing / two insulated wires</text>
    <rect x="20" y="86" width="344" height="225" rx="10" fill="#f2f5f8"/>
    <text xml:space="preserve" x="35" y="118" font-size="15" fill="#223c59">parseCableString(&quot;jst_ph_pins2&quot;)</text><text xml:space="preserve" x="35" y="142" font-size="15" fill="#223c59"></text><text xml:space="preserve" x="35" y="166" font-size="15" fill="#223c59">getCableDefinition({</text><text xml:space="preserve" x="35" y="190" font-size="15" fill="#223c59">  standard: &quot;jst_ph&quot;,</text><text xml:space="preserve" x="35" y="214" font-size="15" fill="#223c59">  pinCount: 2,</text><text xml:space="preserve" x="35" y="238" font-size="15" fill="#223c59">  wireDiameter: 1.2,</text><text xml:space="preserve" x="35" y="262" font-size="15" fill="#223c59">})</text>
    <text xml:space="preserve" x="392" y="104" font-size="12" fill="#485b72">CABLE ASSEMBLY</text>
    <svg x="375" y="110" width="640" height="208" viewBox="0 0 190 100"><g transform="translate(36 30)">
    <path d="M6.85,-1 C34.85,-1 28,41 58,41 S84.15,-1 108.15,-1" fill="none" stroke="#17273b" stroke-opacity=".15" stroke-width="1.65" stroke-linecap="round"/>
      <path d="M6.85,-1 C34.85,-1 28,41 58,41 S84.15,-1 108.15,-1" fill="none" stroke="#df4049" stroke-width="1.2" stroke-linecap="round"/><path d="M6.85,1 C34.85,1 28,43 58,43 S84.15,1 108.15,1" fill="none" stroke="#17273b" stroke-opacity=".15" stroke-width="1.65" stroke-linecap="round"/>
      <path d="M6.85,1 C34.85,1 28,43 58,43 S84.15,1 108.15,1" fill="none" stroke="#263449" stroke-width="1.2" stroke-linecap="round"/>
    <rect x="0" y="-2.9" width="6.85" height="5.8" rx=".4" fill="#f7f4e7" stroke="#7a8fa4" stroke-width=".22"/>
      <rect x="0" y="-2.9" width=".8" height="5.8" fill="#e0dccb"/>
      <rect x="4.85" y="-1.3" width="1.3" height=".6" fill="#c5c8bc" rx=".1"/><rect x="4.85" y="0.7" width="1.3" height=".6" fill="#c5c8bc" rx=".1"/>
    <g transform="translate(115 0) scale(-1 1)"><rect x="0" y="-2.9" width="6.85" height="5.8" rx=".4" fill="#f7f4e7" stroke="#7a8fa4" stroke-width=".22"/>
      <rect x="0" y="-2.9" width=".8" height="5.8" fill="#e0dccb"/>
      <rect x="4.85" y="-1.3" width="1.3" height=".6" fill="#c5c8bc" rx=".1"/><rect x="4.85" y="0.7" width="1.3" height=".6" fill="#c5c8bc" rx=".1"/></g>
  </g></svg>
    <path d="M1015 91 V300" stroke="#e4eaf0"/>
    <text xml:space="preserve" x="1040" y="104" font-size="12" fill="#485b72">MATING FACE</text>
    <svg x="1038" y="140" width="245" height="100" viewBox="-6 -3.75 12 7.5"><rect x="-2.9" y="-2.25" width="5.8" height="4.5" rx=".18" fill="#faf8eb" stroke="#8293a5" stroke-width=".12"/>
      <rect x="-2.6999999999999997" y="-2.6" width="5.3999999999999995" height=".45" rx=".12" fill="#e8e5d8" stroke="#8293a5" stroke-width=".08"/><rect x="-1.425" y="-0.425" width="0.85" height="0.85" rx=".08" fill="#263449"/><rect x="-1.2125" y="-0.2125" width="0.425" height="0.425" fill="#b6a778"/><rect x="0.575" y="-0.425" width="0.85" height="0.85" rx=".08" fill="#263449"/><rect x="0.7875" y="-0.2125" width="0.425" height="0.425" fill="#b6a778"/>
      <path d="M-2.55,2.05 l.6,0 l-.3,-.45 z" fill="#566b80"/></svg>
    <text xml:space="preserve" x="1040" y="265" font-size="13" fill="#485b72">2 contacts / 2 mm pitch</text>
    <text xml:space="preserve" x="1040" y="287" font-size="12" fill="#485b72">detail enlarged</text>
    <text xml:space="preserve" x="24" y="339" font-size="15" fill="#485b72">PHR-2: 5.8 x 4.5 x 6.85 mm / 1.2 mm wire O.D.</text>
  </g><g transform="translate(24 1250)">
    <rect width="1312" height="360" rx="16" fill="#fff"/>
    <text xml:space="preserve" x="24" y="35" font-size="23" fill="#14253b">US wall power / grounded</text>
    <text xml:space="preserve" x="24" y="62" font-size="15" fill="#485b72">NEMA 5-15P plug to IEC C13 appliance connector</text>
    <rect x="20" y="86" width="344" height="225" rx="10" fill="#f2f5f8"/>
    <text xml:space="preserve" x="35" y="118" font-size="15" fill="#223c59">parseCableString(&quot;us_mains&quot;)</text><text xml:space="preserve" x="35" y="142" font-size="15" fill="#223c59"></text><text xml:space="preserve" x="35" y="166" font-size="15" fill="#223c59">getCableDefinition({</text><text xml:space="preserve" x="35" y="190" font-size="15" fill="#223c59">  standard: &quot;us_mains&quot;,</text><text xml:space="preserve" x="35" y="214" font-size="15" fill="#223c59">  jacketDiameter: 6.2,</text><text xml:space="preserve" x="35" y="238" font-size="15" fill="#223c59">})</text>
    <text xml:space="preserve" x="392" y="104" font-size="12" fill="#485b72">CABLE ASSEMBLY</text>
    <svg x="375" y="110" width="640" height="208" viewBox="0 0 190 100"><g transform="translate(36 30)">
    <path d="M35,0 C63,0 28,42 58,42 S61,0 85,0" fill="none" stroke="#17273b" stroke-opacity=".15" stroke-width="6.65" stroke-linecap="round"/>
      <path d="M35,0 C63,0 28,42 58,42 S61,0 85,0" fill="none" stroke="#263449" stroke-width="6.2" stroke-linecap="round"/>
    <rect x="-16" y="-6.5" width="17" height="1.5" rx=".6" fill="#cbb281"/><rect x="-16" y="5" width="17" height="1.5" rx=".6" fill="#cbb281"/><rect x="0" y="-16" width="35" height="32" rx="4" fill="#263449" stroke="#536b80" stroke-width=".3"/>
    <rect x="1.5" y="-15" width="32" height="30" rx="3" fill="#314158"/>
    <path d="M34,-10.666666666666666 v21.333333333333332" stroke="#182438" stroke-width="1"/>
    <g transform="translate(115 0) scale(-1 1)"><rect x="0" y="-12" width="30" height="24" rx="4" fill="#263449" stroke="#536b80" stroke-width=".3"/>
    <rect x="1.5" y="-11" width="27" height="22" rx="3" fill="#314158"/>
    <path d="M29,-8 v16" stroke="#182438" stroke-width="1"/></g>
  </g></svg>
    <path d="M1015 91 V300" stroke="#e4eaf0"/>
    <text xml:space="preserve" x="1040" y="104" font-size="12" fill="#485b72">MATING FACE</text>
    <svg x="1038" y="140" width="115" height="100" viewBox="-18.5 -15.5 37 31"><rect x="-16" y="-14" width="32" height="28" rx="6" fill="#263449" stroke="#54697e" stroke-width=".4"/>
      <rect x="-7.11" y="-8" width="1.52" height="6.35" rx=".18" fill="#cbb281"/>
      <rect x="5.59" y="-8" width="1.52" height="6.35" rx=".18" fill="#cbb281"/>
      <circle cx="0" cy="7.1" r="2.38" fill="#cbb281"/></svg><svg x="1168" y="140" width="115" height="100" viewBox="-12 -8 24 16"><path d="M-9,-3 L-5,-6 H5 L9,-3 V6 H-9 Z" fill="#263449" stroke="#5f7589" stroke-width=".4"/>
    <rect x="-5.6" y="-.5" width="2.3" height="3.4" rx=".2" fill="#101d30"/>
    <rect x="3.3" y="-.5" width="2.3" height="3.4" rx=".2" fill="#101d30"/>
    <rect x="-1.15" y="-4.3" width="2.3" height="3.4" rx=".2" fill="#101d30"/></svg>
    <text xml:space="preserve" x="1040" y="265" font-size="13" fill="#485b72">NEMA 5-15P / IEC C13</text>
    <text xml:space="preserve" x="1040" y="287" font-size="12" fill="#485b72">detail enlarged</text>
    <text xml:space="preserve" x="24" y="339" font-size="15" fill="#485b72">6.2 mm jacket / representative molded bodies</text>
  </g><text xml:space="preserve" x="28" y="1648" font-size="14" fill="#485b72">Illustrative presentation curves; definitions contain no length, route, sag or mesh.</text></svg>